HIERARCHY
ROOT Hips
{
	OFFSET 0.000000 0.000000 0.000000
	CHANNELS 6 Xposition Yposition Zposition Zrotation Yrotation Xrotation 
	JOINT LHipJoint
	{
		OFFSET 0.000000 0.000000 0.000000
		CHANNELS 3 Zrotation Yrotation Xrotation
		JOINT LeftUpLeg
		{
			OFFSET 1.363060 -1.794630 0.839290
			CHANNELS 3 Zrotation Yrotation Xrotation
			JOINT LeftLeg
			{
				OFFSET 2.448110 -6.726130 0.000000
				CHANNELS 3 Zrotation Yrotation Xrotation
				JOINT LeftFoot
				{
					OFFSET 2.562200 -7.039590 0.000000
					CHANNELS 3 Zrotation Yrotation Xrotation
					JOINT LeftToeBase
					{
						OFFSET 0.157640 -0.433110 2.322550
						CHANNELS 3 Zrotation Yrotation Xrotation
						End Site
						{
							OFFSET 0.000000 0.000000 0.000000
						}
					}
				}
			}
		}
	}
	JOINT RHipJoint
	{
		OFFSET 0.000000 0.000000 0.000000
		CHANNELS 3 Zrotation Yrotation Xrotation
		JOINT RightUpLeg
		{
			OFFSET -1.305520 -1.794630 0.839290
			CHANNELS 3 Zrotation Yrotation Xrotation
			JOINT RightLeg
			{
				OFFSET -2.542530 -6.985550 0.000000
				CHANNELS 3 Zrotation Yrotation Xrotation
				JOINT RightFoot
				{
					OFFSET -2.568260 -7.056230 0.000000
					CHANNELS 3 Zrotation Yrotation Xrotation
					JOINT RightToeBase
					{
						OFFSET -0.164730 -0.452590 2.363150
						CHANNELS 3 Zrotation Yrotation Xrotation
						End Site
						{
							OFFSET 0.000000 0.000000 0.000000
						}
					}
				}
			}
		}
	}
	JOINT LowerBack
	{
		OFFSET 0.000000 0.000000 0.000000
		CHANNELS 3 Zrotation Yrotation Xrotation
		JOINT Spine
		{
			OFFSET 0.028270 2.035590 -0.193380
			CHANNELS 3 Zrotation Yrotation Xrotation
			JOINT Spine1
			{
				OFFSET 0.056720 2.048850 -0.042750
				CHANNELS 3 Zrotation Yrotation Xrotation
				JOINT Neck
				{
					OFFSET 0.000000 0.000000 0.000000
					CHANNELS 3 Zrotation Yrotation Xrotation
					JOINT Neck1
					{
						OFFSET -0.054170 1.746240 0.172020
						CHANNELS 3 Zrotation Yrotation Xrotation
						JOINT Head
						{
							OFFSET 0.104070 1.761360 -0.123970
							CHANNELS 3 Zrotation Yrotation Xrotation
							End Site
							{
								OFFSET 0.000000 0.000000 0.000000
							}
						}
					}
				}
				JOINT LeftShoulder
				{
					OFFSET 0.000000 0.000000 0.000000
					CHANNELS 3 Zrotation Yrotation Xrotation
					JOINT LeftArm
					{
						OFFSET 3.362410 1.200890 -0.311210
						CHANNELS 3 Zrotation Yrotation Xrotation
						JOINT LeftForeArm
						{
							OFFSET 4.983000 -0.000000 -0.000000
							CHANNELS 3 Zrotation Yrotation Xrotation
							JOINT LeftHand
							{
								OFFSET 3.483560 -0.000000 -0.000000
								CHANNELS 3 Zrotation Yrotation Xrotation
								JOINT LeftFingerBase
								{
									OFFSET 0.000000 0.000000 0.000000
									CHANNELS 3 Zrotation Yrotation Xrotation
									JOINT LeftHandIndex1
									{
										OFFSET 0.715260 -0.000000 -0.000000
										CHANNELS 3 Zrotation Yrotation Xrotation
										End Site
										{
											OFFSET 0.000000 0.000000 0.000000
										}
									}
								}
								JOINT LThumb
								{
									OFFSET 0.000000 0.000000 0.000000
									CHANNELS 3 Zrotation Yrotation Xrotation
									End Site
									{
										OFFSET 0.000000 0.000000 0.000000
									}
								}
							}
						}
					}
				}
				JOINT RightShoulder
				{
					OFFSET 0.000000 0.000000 0.000000
					CHANNELS 3 Zrotation Yrotation Xrotation
					JOINT RightArm
					{
						OFFSET -3.136600 1.374050 -0.404650
						CHANNELS 3 Zrotation Yrotation Xrotation
						JOINT RightForeArm
						{
							OFFSET -5.241900 -0.000000 -0.000000
							CHANNELS 3 Zrotation Yrotation Xrotation
							JOINT RightHand
							{
								OFFSET -3.444170 -0.000000 -0.000000
								CHANNELS 3 Zrotation Yrotation Xrotation
								JOINT RightFingerBase
								{
									OFFSET 0.000000 0.000000 0.000000
									CHANNELS 3 Zrotation Yrotation Xrotation
									JOINT RightHandIndex1
									{
										OFFSET -0.622530 -0.000000 -0.000000
										CHANNELS 3 Zrotation Yrotation Xrotation
										End Site
										{
											OFFSET 0.000000 0.000000 0.000000
										}
									}
								}
								JOINT RThumb
								{
									OFFSET 0.000000 0.000000 0.000000
									CHANNELS 3 Zrotation Yrotation Xrotation
									End Site
									{
										OFFSET 0.000000 0.000000 0.000000
									}
								}
							}
						}
					}
				}
			}
		}
	}
}
MOTION
Frames: 4
Frame Time: 0.008333
10.322666 16.561890 -1.426717 35.590480 84.452335 32.352313 -9.920846 2.647936 -1.383227 -14.140213 10.391371 -2.556285 -2.377260 1.282663 30.045481 2.240683 9.364472 -22.647433 -3.051300 -0.000000 -23.986800 10.743791 1.606432 -1.358538 -2.756317 -13.631872 -31.469948 0.513010 -2.892473 45.447483 -3.400228 -15.340509 -16.272355 1.838199 0.000000 -29.099600 0.404630 -3.007526 1.949506 -0.356475 -3.021382 -1.783018 -5.123456 -2.979542 3.034746 8.635566 -16.805651 -11.530043 -1.880862 -0.081168 -1.058489 0.000000 0.000000 0.000000 3.977904 21.490872 0.530242 -57.634276 -1.406924 -1.785416 -2.073326 -50.422290 -0.025107 7.164835 3.459316 0.215649 -0.195784 0.125085 0.000000 0.000000 0.000000 0.000000 0.000000 0.000000 0.000000 11.809137 -13.851389 0.461856 78.671384 -15.611931 -24.972257 4.386067 10.134904 0.016264 0.308716 6.353170 0.010081 0.137138 -0.061708 -0.000000 0.000000 0.000000 0.000000 0.000000 0.000000 0.000000 
10.567906 16.669870 -1.407903 33.268076 84.770114 29.891763 -10.077906 2.801133 -1.174593 -13.252214 10.405257 -0.382289 -2.300569 1.153166 27.341517 2.104770 9.266792 -20.564548 -2.599700 0.000000 -26.652200 10.472226 1.508140 -1.337397 -1.162724 -13.993922 -31.271416 0.714176 -2.602125 42.396849 -3.403904 -15.079496 -16.023259 1.729500 -0.000000 -29.871499 0.981555 -3.302934 1.625345 -0.229141 -3.365230 -1.816106 -5.112680 -3.325266 3.095165 8.604238 -17.362187 -11.503637 -1.907973 -0.084481 -1.042306 0.000000 0.000000 0.000000 4.351453 21.339435 0.465411 -55.478778 -0.928338 -1.978754 -1.893187 -52.601959 -0.028181 7.424443 3.839210 0.248071 -0.199158 0.133154 -0.000000 0.000000 0.000000 0.000000 0.000000 0.000000 0.000000 12.182647 -14.617808 0.401552 78.948198 -17.156178 -24.410748 4.523330 10.201776 0.015191 1.254528 5.683492 0.056560 0.134498 -0.052977 -0.000000 0.000000 0.000000 0.000000 0.000000 0.000000 0.000000 
10.814179 16.782257 -1.387220 30.178622 85.154252 26.678373 -10.249027 2.968909 -0.952638 -12.273402 10.359421 1.649835 -2.189304 1.056754 24.789088 1.957880 9.185063 -18.155542 -2.095800 0.000000 -30.068800 10.203054 1.380370 -1.297427 0.464719 -14.239471 -30.853333 0.919934 -2.287282 39.122301 -3.404551 -14.813802 -15.746655 1.614400 0.000000 -30.861100 1.589460 -3.600520 1.264554 -0.090159 -3.714779 -1.856358 -5.096453 -3.677100 3.160852 8.586467 -17.975464 -11.472450 -1.927345 -0.087351 -1.024653 0.000000 0.000000 0.000000 4.710458 21.197470 0.406672 -53.320245 -0.394477 -2.190873 -1.729197 -54.571510 -0.030858 7.527898 4.255138 0.279181 -0.200599 0.140167 -0.000000 0.000000 0.000000 0.000000 0.000000 0.000000 0.000000 12.549631 -15.433971 0.324061 79.107038 -18.730277 -23.531286 4.667333 10.513870 0.014129 2.322898 5.111702 0.099043 0.130842 -0.044273 -0.000000 0.000000 0.000000 0.000000 0.000000 0.000000 0.000000 
11.060347 16.897927 -1.363669 26.118086 85.602719 22.510897 -10.418292 3.152376 -0.731017 -11.213760 10.282739 3.476229 -2.048690 1.003666 22.495509 1.800793 9.083995 -15.423851 -1.542000 -0.000000 -34.226600 9.952342 1.231113 -1.225929 2.075096 -14.324995 -30.198382 1.124635 -1.946839 35.620395 -3.406992 -14.581061 -15.422670 1.489800 -0.000000 -32.043500 2.205887 -3.899385 0.871590 0.055997 -4.067840 -1.903290 -5.078435 -4.032592 3.230509 8.594226 -18.626958 -11.433988 -1.941343 -0.090000 -1.005092 0.000000 0.000000 0.000000 5.080497 21.055360 0.353447 -51.186598 0.170294 -2.401783 -1.581519 -56.322368 -0.032982 7.493391 4.669418 0.305280 -0.199999 0.146459 0.000000 0.000000 0.000000 0.000000 0.000000 0.000000 0.000000 12.925167 -16.281785 0.231949 79.166064 -20.308806 -22.477793 4.812003 10.994406 0.013017 3.483116 4.633137 0.137229 0.126155 -0.035862 -0.000000 0.000000 0.000000 0.000000 0.000000 0.000000 0.000000 
